<svg id="bars" xmlns="http://www.w3.org/2000/svg" viewBox="0 0 130 108.56">
    <path d="M1,11.28C3.82,7.21,7.69,6.16,12.57,6.19q52.43.26,104.86,0c4.88,0,8.76,1,11.57,5.09v6c-2.82,4.06-6.69,5.12-11.57,5.09q-52.42-.26-104.85,0c-4.89,0-8.74-1.05-11.58-5.09Z"/>
    <path d="M129,57.28c-2.82,4.06-6.69,5.12-11.57,5.09q-52.43-.26-104.85,0c-4.89,0-8.76-1-11.57-5.09v-6c2.8-4.11,6.68-5.12,11.56-5.09q52.43.26,104.87,0c4.88,0,8.76,1,11.57,5.09Z"/>
    <path d="M129,97.28c-2.82,4.06-6.69,5.12-11.57,5.09q-52.43-.26-104.85,0c-4.89,0-8.76-1-11.57-5.09v-6c2.8-4.11,6.68-5.12,11.56-5.09q52.43.26,104.87,0c4.88,0,8.76,1,11.57,5.09Z"/>
</svg>