<?xml version="1.0" encoding="UTF-8" standalone="no"?>
<!-- Created with Inkscape (http://www.inkscape.org/) -->

<svg
   xmlns:dc="http://purl.org/dc/elements/1.1/"
   xmlns:cc="http://creativecommons.org/ns#"
   xmlns:rdf="http://www.w3.org/1999/02/22-rdf-syntax-ns#"
   xmlns:svg="http://www.w3.org/2000/svg"
   xmlns="http://www.w3.org/2000/svg"
   xmlns:sodipodi="http://sodipodi.sourceforge.net/DTD/sodipodi-0.dtd"
   xmlns:inkscape="http://www.inkscape.org/namespaces/inkscape"
   width="210mm"
   height="297mm"
   viewBox="0 0 210 297"
   version="1.1"
   id="svg1134"
   inkscape:version="0.92.4 (5da689c313, 2019-01-14)"
   sodipodi:docname="drawing-3.svg">
  <defs
     id="defs1128" />
  <sodipodi:namedview
     id="base"
     pagecolor="#ffffff"
     bordercolor="#666666"
     borderopacity="1.0"
     inkscape:pageopacity="0.0"
     inkscape:pageshadow="2"
     inkscape:zoom="0.35"
     inkscape:cx="400"
     inkscape:cy="560"
     inkscape:document-units="mm"
     inkscape:current-layer="layer1"
     showgrid="false"
     inkscape:window-width="1259"
     inkscape:window-height="405"
     inkscape:window-x="545"
     inkscape:window-y="44"
     inkscape:window-maximized="0" />
  <metadata
     id="metadata1131">
    <rdf:RDF>
      <cc:Work
         rdf:about="">
        <dc:format>image/svg+xml</dc:format>
        <dc:type
           rdf:resource="http://purl.org/dc/dcmitype/StillImage" />
        <dc:title></dc:title>
      </cc:Work>
    </rdf:RDF>
  </metadata>
  <g
     inkscape:label="Layer 1"
     inkscape:groupmode="layer"
     id="layer1">
    <g
       id="g1194"
       transform="matrix(2.2943957,0,0,2.3025571,83.160128,122.99542)"
       style="fill:#ff00ff">
      <g
         id="g1138"
         style="fill:#ff00ff">
	<path
   id="path1136"
   d="m 25.972,21.712 c -2.18,-0.51 -4.961,-1.842 -5.971,-3.496 -0.562,-0.924 -0.623,-1.96 -0.166,-2.851 0.023,-0.047 0.067,-0.118 0.102,-0.175 -0.024,-0.197 0.021,-0.456 0.162,-0.792 0.009,-0.023 0.01,-0.028 0.016,-0.041 H 8.925 c 0.006,0.012 0.006,0.012 0.013,0.028 0,0 10e-4,0 10e-4,10e-4 0.251,0.394 0.471,0.742 0.588,0.968 0.463,0.9 0.402,1.938 -0.16,2.859 -1.01,1.656 -3.795,2.99 -5.973,3.498 L 2.792,31.81 c -0.064,1.105 0.66,2.013 1.612,2.013 h 20.558 c 0.953,0 1.679,-0.905 1.612,-2.013 z m -14.65,6.955 h -1.93 c -0.356,0 -0.644,-0.289 -0.644,-0.645 0,-0.356 0.287,-0.645 0.644,-0.645 h 1.93 c 0.354,0 0.644,0.289 0.644,0.645 0,0.356 -0.289,0.645 -0.644,0.645 z m 0,-2.455 h -1.93 c -0.356,0 -0.644,-0.289 -0.644,-0.645 0,-0.356 0.287,-0.643 0.644,-0.643 h 1.93 c 0.354,0 0.644,0.285 0.644,0.643 0,0.356 -0.289,0.645 -0.644,0.645 z m 0,-2.455 h -1.93 c -0.356,0 -0.644,-0.288 -0.644,-0.644 0,-0.354 0.287,-0.645 0.644,-0.645 h 1.93 c 0.354,0 0.644,0.288 0.644,0.645 0,0.356 -0.289,0.644 -0.644,0.644 z m 4.326,4.91 h -1.931 c -0.355,0 -0.644,-0.289 -0.644,-0.645 0,-0.356 0.287,-0.645 0.644,-0.645 h 1.931 c 0.356,0 0.646,0.289 0.646,0.645 0,0.356 -0.289,0.645 -0.646,0.645 z m 0,-2.455 h -1.931 c -0.355,0 -0.644,-0.289 -0.644,-0.645 0,-0.356 0.287,-0.643 0.644,-0.643 h 1.931 c 0.356,0 0.646,0.285 0.646,0.643 0,0.356 -0.289,0.645 -0.646,0.645 z m 0,-2.455 h -1.931 c -0.355,0 -0.644,-0.288 -0.644,-0.644 0,-0.354 0.287,-0.645 0.644,-0.645 h 1.931 c 0.356,0 0.646,0.288 0.646,0.645 0,0.356 -0.289,0.644 -0.646,0.644 z m 4.328,4.91 h -1.93 c -0.354,0 -0.646,-0.289 -0.646,-0.645 0,-0.356 0.29,-0.645 0.646,-0.645 h 1.93 c 0.355,0 0.646,0.289 0.646,0.645 0,0.356 -0.291,0.645 -0.646,0.645 z m 0,-2.455 h -1.93 c -0.354,0 -0.646,-0.289 -0.646,-0.645 0,-0.356 0.29,-0.643 0.646,-0.643 h 1.93 c 0.355,0 0.646,0.285 0.646,0.643 -0.002,0.356 -0.291,0.645 -0.646,0.645 z m 0,-2.455 h -1.93 c -0.354,0 -0.646,-0.288 -0.646,-0.644 0,-0.354 0.29,-0.645 0.646,-0.645 h 1.93 c 0.355,0 0.646,0.288 0.646,0.645 -0.002,0.356 -0.291,0.644 -0.646,0.644 z m 7.631,-13.616 c 0.009,0.177 0.049,0.356 0.021,0.534 -0.164,1.044 -0.711,2.007 -1.043,3.014 -0.431,1.284 -6.949,0.309 -6.541,-1.367 0.154,-0.62 0.912,-2.413 0.851,-3.047 C 20.839,8.71 20.011,8.457 19.333,8.565 17.536,8.844 15.314,9.516 13.445,9.979 l 10e-4,0.003 c -0.051,0.014 -0.104,0.022 -0.156,0.037 -0.052,0.011 -0.104,0.025 -0.156,0.038 v -0.003 c -1.873,0.44 -4.155,0.853 -5.885,1.42 -0.656,0.216 -1.275,0.817 -1.066,1.347 0.232,0.59 1.724,1.843 2.145,2.325 1.127,1.307 -4.234,5.145 -5.201,4.195 C 2.373,18.598 1.448,17.988 0.826,17.134 0.722,16.988 0.676,16.81 0.6,16.648 -1.21,12.964 1.191,8.182 6.15,6.557 8.045,5.935 9.959,5.381 11.886,4.878 l -0.002,-0.01 c 0.055,-0.012 0.104,-0.021 0.158,-0.032 0.051,-0.013 0.104,-0.03 0.155,-0.043 l 0.002,0.01 c 1.944,-0.432 3.902,-0.81 5.87,-1.12 5.158,-0.812 9.473,2.352 9.538,6.458 z m 5.654,4.282 -1.375,-0.647 C 34.001,9.292 32.071,3.925 27.589,1.813 l 0.645,-1.374 c 5.242,2.47 7.495,8.743 5.027,13.984 z M 30.888,13.305 29.515,12.658 C 31.011,9.482 29.646,5.681 26.47,4.185 l 0.646,-1.371 c 3.934,1.852 5.625,6.559 3.772,10.491 z"
   inkscape:connector-curvature="0"
   style="fill:#ff00ff" />

</g>
      <g
         id="g1140"
         style="fill:#ff00ff">
</g>
      <g
         id="g1142"
         style="fill:#ff00ff">
</g>
      <g
         id="g1144"
         style="fill:#ff00ff">
</g>
      <g
         id="g1146"
         style="fill:#ff00ff">
</g>
      <g
         id="g1148"
         style="fill:#ff00ff">
</g>
      <g
         id="g1150"
         style="fill:#ff00ff">
</g>
      <g
         id="g1152"
         style="fill:#ff00ff">
</g>
      <g
         id="g1154"
         style="fill:#ff00ff">
</g>
      <g
         id="g1156"
         style="fill:#ff00ff">
</g>
      <g
         id="g1158"
         style="fill:#ff00ff">
</g>
      <g
         id="g1160"
         style="fill:#ff00ff">
</g>
      <g
         id="g1162"
         style="fill:#ff00ff">
</g>
      <g
         id="g1164"
         style="fill:#ff00ff">
</g>
      <g
         id="g1166"
         style="fill:#ff00ff">
</g>
      <g
         id="g1168"
         style="fill:#ff00ff">
</g>
    </g>
  </g>
</svg>
