<svg id="facebook" xmlns="http://www.w3.org/2000/svg" viewBox="0 0 130 130"><path d="M57,1H73a22.4,22.4,0,0,0,2.76.93c26.06,5.27,42.91,20.75,50.92,46,.94,3,1.55,6.05,2.32,9.08V73a21.12,21.12,0,0,0-.95,2.74q-7.88,38.73-45.51,50.76c-3.13,1-6.36,1.68-9.54,2.51H57a11.18,11.18,0,0,0-2.19-.91C29.87,123.4,13.13,109,4.38,85.31,2.91,81.33,2.11,77.11,1,73V57a11.59,11.59,0,0,0,.9-2.21C6.56,29.83,21,13.13,44.68,4.36,48.66,2.89,52.89,2.1,57,1Zm7.81,7.8a56.19,56.19,0,1,0,56.38,56A56,56,0,0,0,64.81,8.8Z"/><path d="M78.76,36V46c-9.38,1.63-9.38,1.63-8.65,8.91,1.36.1,2.79.24,4.22.3s2.62,0,4.65,0l-1.05,9.6-8.15.41V92.81H57.35V65.44l-6.06-.73V55.56l5.42-.64c1-5.38-1.23-12.66,5-15.57C66.63,37,72.69,37.06,78.76,36Z"/></svg>