<svg id = "home2" data-name="Слой 1" xmlns="http://www.w3.org/2000/svg" viewBox="0 0 96.62 102.62">
    <path d="M48.24 22.46c12.7 12.89 24.55 24.82 36.24 36.91a7.62 7.62 0 011.75 4.83c.14 10.83 0 21.66.12 32.49.05 3.46-1.1 4.75-4.6 4.65-7.28-.19-14.58 0-22.33 0V66.72H40v34.55c-9.36 0-18 .12-26.61-.16-1 0-2.79-2.25-2.82-3.49-.22-11.49-.18-23-.08-34.48a5.57 5.57 0 011.39-3.51C23.7 47.45 35.61 35.34 48.24 22.46z"/>
    <path d="M48.18 15.86L12.85 51.29c-.94.94-1.78 2.49-2.85 2.69-2.33.41-5.35 1-7-.08-2.66-1.67-2.12-4.67.06-6.9 4-4.05 7.85-8.18 12-12 2.79-2.55 4.23-5.26 3.87-9.13-.31-3.46-.05-7-.07-10.48 0-2.91.57-5.72 4.08-5.63s4 3 3.93 5.82v6.18l20-20.49 1.08 1c.45.15 1 .17 1.35.48q22 21.84 43.9 43.74c2.3 2.3 3.21 4.91.77 7.45s-5.36 2.06-7.86-.42L84 51.4q-16.08-16-32.17-32.12c-1.04-1.04-2.14-2.01-3.65-3.42z"/>
 </svg>