<?xml version="1.0" encoding="UTF-8"?>
<!-- Created with Inkscape (http://www.inkscape.org/) -->
<svg width="210mm" height="297mm" version="1.1" viewBox="0 0 210 297" xmlns="http://www.w3.org/2000/svg" xmlns:cc="http://creativecommons.org/ns#" xmlns:dc="http://purl.org/dc/elements/1.1/" xmlns:rdf="http://www.w3.org/1999/02/22-rdf-syntax-ns#">
 <metadata>
  <rdf:RDF>
   <cc:Work rdf:about="">
    <dc:format>image/svg+xml</dc:format>
    <dc:type rdf:resource="http://purl.org/dc/dcmitype/StillImage"/>
    <dc:title/>
   </cc:Work>
  </rdf:RDF>
 </metadata>
 <g transform="matrix(2.0941 0 0 1.9793 2.394 37.83)" fill="#f00">
  <path d="m48.24 22.46c12.7 12.89 24.55 24.82 36.24 36.91a7.62 7.62 0 0 1 1.75 4.83c0.14 10.83 0 21.66 0.12 32.49 0.05 3.46-1.1 4.75-4.6 4.65-7.28-0.19-14.58 0-22.33 0v-34.62h-19.42v34.55c-9.36 0-18 0.12-26.61-0.16-1 0-2.79-2.25-2.82-3.49-0.22-11.49-0.18-23-0.08-34.48a5.57 5.57 0 0 1 1.39-3.51c11.82-12.18 23.73-24.29 36.36-37.17z"/>
  <path d="m48.18 15.86-35.33 35.43c-0.94 0.94-1.78 2.49-2.85 2.69-2.33 0.41-5.35 1-7-0.08-2.66-1.67-2.12-4.67 0.06-6.9 4-4.05 7.85-8.18 12-12 2.79-2.55 4.23-5.26 3.87-9.13-0.31-3.46-0.05-7-0.07-10.48 0-2.91 0.57-5.72 4.08-5.63s4 3 3.93 5.82v6.18l20-20.49 1.08 1c0.45 0.15 1 0.17 1.35 0.48q22 21.84 43.9 43.74c2.3 2.3 3.21 4.91 0.77 7.45s-5.36 2.06-7.86-0.42l-2.11-2.12q-16.08-16-32.17-32.12c-1.04-1.04-2.14-2.01-3.65-3.42z"/>
 </g>
</svg>
