<?xml version="1.0" encoding="UTF-8" standalone="no"?>
<!-- Created with Inkscape (http://www.inkscape.org/) -->

<svg
   xmlns:dc="http://purl.org/dc/elements/1.1/"
   xmlns:cc="http://creativecommons.org/ns#"
   xmlns:rdf="http://www.w3.org/1999/02/22-rdf-syntax-ns#"
   xmlns:svg="http://www.w3.org/2000/svg"
   xmlns="http://www.w3.org/2000/svg"
   xmlns:sodipodi="http://sodipodi.sourceforge.net/DTD/sodipodi-0.dtd"
   xmlns:inkscape="http://www.inkscape.org/namespaces/inkscape"
   width="210mm"
   height="297mm"
   viewBox="0 0 210 297"
   version="1.1"
   id="svg966"
   inkscape:version="0.92.4 (5da689c313, 2019-01-14)"
   sodipodi:docname="home3.svg">
  <defs
     id="defs960" />
  <sodipodi:namedview
     id="base"
     pagecolor="#ffffff"
     bordercolor="#666666"
     borderopacity="1.0"
     inkscape:pageopacity="0.0"
     inkscape:pageshadow="2"
     inkscape:zoom="0.35"
     inkscape:cx="400"
     inkscape:cy="560"
     inkscape:document-units="mm"
     inkscape:current-layer="layer1"
     showgrid="false"
     inkscape:window-width="1600"
     inkscape:window-height="837"
     inkscape:window-x="-8"
     inkscape:window-y="-8"
     inkscape:window-maximized="1" />
  <metadata
     id="metadata963">
    <rdf:RDF>
      <cc:Work
         rdf:about="">
        <dc:format>image/svg+xml</dc:format>
        <dc:type
           rdf:resource="http://purl.org/dc/dcmitype/StillImage" />
        <dc:title></dc:title>
      </cc:Work>
    </rdf:RDF>
  </metadata>
  <g
     inkscape:label="Layer 1"
     inkscape:groupmode="layer"
     id="layer1">
    <g
       id="g981"
       transform="matrix(2.094103,0,0,1.9793031,0.12616149,146.68763)"
       style="fill:#ff0000">
      <path
         id="path968"
         d="m 48.24,22.46 c 12.7,12.89 24.55,24.82 36.24,36.91 a 7.62,7.62 0 0 1 1.75,4.83 c 0.14,10.83 0,21.66 0.12,32.49 0.05,3.46 -1.1,4.75 -4.6,4.65 -7.28,-0.19 -14.58,0 -22.33,0 V 66.72 H 40 v 34.55 c -9.36,0 -18,0.12 -26.61,-0.16 -1,0 -2.79,-2.25 -2.82,-3.49 -0.22,-11.49 -0.18,-23 -0.08,-34.48 a 5.57,5.57 0 0 1 1.39,-3.51 C 23.7,47.45 35.61,35.34 48.24,22.46 Z"
         inkscape:connector-curvature="0"
         style="fill:#ff0000" />
      <path
         id="path970"
         d="M 48.18,15.86 12.85,51.29 C 11.91,52.23 11.07,53.78 10,53.98 7.67,54.39 4.65,54.98 3,53.9 0.34,52.23 0.88,49.23 3.06,47 c 4,-4.05 7.85,-8.18 12,-12 2.79,-2.55 4.23,-5.26 3.87,-9.13 -0.31,-3.46 -0.05,-7 -0.07,-10.48 0,-2.91 0.57,-5.72 4.08,-5.63 3.51,0.09 4,3 3.93,5.82 v 6.18 l 20,-20.49 1.08,1 c 0.45,0.15 1,0.17 1.35,0.48 q 22,21.84 43.9,43.74 c 2.3,2.3 3.21,4.91 0.77,7.45 -2.44,2.54 -5.36,2.06 -7.86,-0.42 L 84,51.4 Q 67.92,35.4 51.83,19.28 c -1.04,-1.04 -2.14,-2.01 -3.65,-3.42 z"
         inkscape:connector-curvature="0"
         style="fill:#ff0000" />
    </g>
  </g>
</svg>
