<svg id="instagram_bg" xmlns="http://www.w3.org/2000/svg" viewBox="0 0 62.14 62.07"><path d="M31.06,61c-4.33,0-8.66.15-13,0C8.58,60.6,1.41,53.51,1.17,44q-.33-13,0-26A17,17,0,0,1,18.08,1.17q13-.34,26,0A17.06,17.06,0,0,1,61,18.08q.36,13,0,26A17.17,17.17,0,0,1,44,61C39.72,61.16,35.39,61,31.06,61ZM31.26,6.9c-4.33,0-8.66-.1-13,0C11.37,7.12,7,11.27,6.78,18.14c-.23,8.65-.22,17.32,0,26,.15,6.68,4.22,11.1,10.85,11.36,9,.34,18,.34,27,0C51,55.22,55.13,50.87,55.3,44.52q.35-13.23,0-26.48c-.18-6.82-4.63-10.93-11.56-11.13C39.59,6.8,35.42,6.89,31.26,6.9Z"/><path d="M31.14,15.8A15.34,15.34,0,0,1,46.55,31.42a15.5,15.5,0,0,1-31-.16A15.35,15.35,0,0,1,31.14,15.8ZM31,41.16a9.88,9.88,0,0,0,10.13-10,10,10,0,0,0-20-.21A9.84,9.84,0,0,0,31,41.16Z"/><path d="M52.09,14.79c-2.15,1.76-3.41,3.6-4.65,3.59s-2.54-1.83-3.82-2.86c1.14-1.33,2.07-3.33,3.48-3.75C48.12,11.47,49.76,13.29,52.09,14.79Z"/></svg>