<svg id="instagram" xmlns="http://www.w3.org/2000/svg" viewBox="0 0 130 130"><path d="M57,1H73a22.4,22.4,0,0,0,2.76.93c26.06,5.27,42.91,20.75,50.92,46,.94,3,1.55,6.05,2.32,9.08V73a21.12,21.12,0,0,0-.95,2.74q-7.88,38.73-45.51,50.76c-3.13,1-6.36,1.68-9.54,2.51H57a11.18,11.18,0,0,0-2.19-.91C29.87,123.4,13.13,109,4.38,85.31,2.91,81.33,2.11,77.11,1,73V57a11.59,11.59,0,0,0,.9-2.21C6.56,29.83,21,13.13,44.68,4.36,48.66,2.89,52.89,2.1,57,1Zm8.19,120.18a56.19,56.19,0,1,0-56.4-56A56,56,0,0,0,65.19,121.18Z"/><path d="M36.9,65.08c0-7.16,0-14.32,0-21.48,0-5.92,1.91-8,7.64-8q20.48-.12,41,0c5.52,0,7.54,2.08,7.56,7.56q.09,21.72,0,43.45c0,5.78-2,7.71-7.9,7.74q-20.23.1-40.45,0c-5.85,0-7.76-2-7.81-7.81C36.85,79.39,36.9,72.23,36.9,65.08ZM43,59.6c0,8.72-.13,16.86.14,25,0,1.17,2,3.26,3.06,3.28q18.7.35,37.4,0c1.16,0,3.24-2,3.27-3.07.28-8.27.15-16.55.15-25.11H82.44C82,73.26,79.31,79.93,71.09,81.87c-18.2,4.31-23.64-6.35-23.64-22.27Zm33.3,5.24c-.07-6.66-5.27-12-11.56-11.78s-11.2,5.64-11,12.32c.17,6.44,5.2,11.56,11.31,11.54C71.32,76.91,76.35,71.52,76.28,64.84ZM86.95,45.78c.53-3.55-.32-5.67-4.58-5.62-3.69,0-5.46,1-5.36,5.07.09,3.47.58,5.68,4.83,5.6C85.48,50.75,87.72,49.94,86.95,45.78Z"/></svg>