<svg id="pinterest" xmlns="http://www.w3.org/2000/svg" viewBox="0 0 130 130"><path d="M57,1H73a22.4,22.4,0,0,0,2.76.93c26.06,5.27,42.91,20.75,50.92,46,.94,3,1.55,6.05,2.32,9.08V73a21.12,21.12,0,0,0-.95,2.74q-7.88,38.73-45.51,50.76c-3.13,1-6.36,1.68-9.54,2.51H57a11.18,11.18,0,0,0-2.19-.91C29.87,123.4,13.13,109,4.38,85.31,2.91,81.33,2.11,77.11,1,73V57a11.59,11.59,0,0,0,.9-2.21C6.56,29.83,21,13.13,44.68,4.36,48.66,2.89,52.89,2.1,57,1Zm64.18,64A56.19,56.19,0,1,0,65,121.18,56,56,0,0,0,121.18,65Z"/><path d="M61.58,76.46,53,98l-2.48-.6c.33-5.18.35-10.39,1.06-15.52C52.79,73.3,56.7,65.06,54.94,56c-.32-1.63.4-3.64,1.13-5.26,1.35-3,4-5.25,7.09-3.58,1.72.94,3.12,4.26,3,6.41-.22,3.91-2.14,7.72-2.45,11.64-.18,2.26.73,5.69,2.35,6.73s5.3.79,7.26-.33C79.52,68.07,82.5,53.39,79,46c-3.07-6.48-10.78-9.33-18.89-7S46.6,50.07,48,59c.2,1.29,1,2.48,1.21,3.77.46,2.31.73,4.67,1.15,7.54-6.21-1.83-8.81-5.33-9.4-11.44-1-10.28,2.79-18.5,11.76-23.53S71.27,30,80.1,36c8.63,5.92,10.41,14.78,8.52,24.37a33.61,33.61,0,0,1-4.85,11.87C78.34,80.42,69.48,81.76,61.58,76.46Z"/></svg>