<svg id="pinterest_bg" xmlns="http://www.w3.org/2000/svg" viewBox="0 0 57.77 73.91"><path d="M12.05,43.48C5.53,41.65,3.18,38,1.9,33.54-2.48,18.12,9.63,2.71,27.31,1.4,38.6.57,48.1,4,54,14.34,58.88,23,57.11,37.07,50.4,45.41c-6.9,8.57-16.48,10-26.22,3.71C22,57.61,20.34,66.33,12.42,72.63c.29-5.47.24-11,1-16.41.64-4.75,2.48-9.34,3.21-14.09.62-4,.18-8.16.65-12.19.38-3.21.64-6.92,2.42-9.33C21,18.79,25,17.49,27.19,18.14c1.66.5,3.32,4.45,3.19,6.77-.22,3.9-1.77,7.74-2.92,11.56-1,3.32-.93,6.35,2.19,8.46S36,46.32,39,44.27c6.35-4.4,9.75-18.55,6.44-26.62C42.57,10.74,34.42,7,25.68,8.6,15.94,10.38,9.13,18,9.13,27.65c0,2.39,1.22,4.75,1.68,7.16C11.3,37.39,11.57,40,12.05,43.48Z"/></svg>