<svg id="returns" xmlns="http://www.w3.org/2000/svg" viewBox="0 0 448 449.52">
    <path d="M447,224.7c0,122.79-100.75,223.53-223.27,223.14-123-.39-222.64-100.11-222.79-223C.82,102.16,100.85,1.92,223.64,1.67S447,101.86,447,224.7Zm-46.82.15c-.37-97.74-79.57-176.63-177-176.34C126.52,48.8,47.71,128.09,47.87,224.9c.16,97.45,79.53,176.53,176.59,176S400.57,321.2,400.21,224.86Z"/>
    <path d="M247.08,164.42q0,33.24,0,66.48c0,12.14-7.82,20.1-20,20.12q-44.74.07-89.48,0c-10.15,0-16.85-5.5-18.48-14.73a16.7,16.7,0,0,1,11.21-18.88,25,25,0,0,1,7.84-1c25.66-.07,51.32-.17,77,.06,4.83,0,6.19-1.34,6.17-6.15q-.27-57-.06-114c0-10.75,9.89-17.11,18.79-12.3,5.28,2.85,7,7.62,7,13.39-.06,22.33,0,44.66,0,67Z"/>
</svg>