<svg id="support" xmlns="http://www.w3.org/2000/svg" viewBox="0 0 50 50"><path d="M49,20V30A28.44,28.44,0,0,1,30,49H20C10.49,45.84,4.11,39.56,1,30V20A28.18,28.18,0,0,1,20,1H30C39.56,4.11,45.84,10.49,49,20ZM25.08,35.15A9.87,9.87,0,0,0,35.15,25a9.87,9.87,0,0,0-10-10.2A9.89,9.89,0,0,0,14.83,25.2,9.87,9.87,0,0,0,25.08,35.15ZM15.85,6.64c5.57,7.29,13.64,7.11,18-.1C27.92,3.7,22.12,3.77,15.85,6.64ZM6.62,16a19.33,19.33,0,0,0,0,17.89C13.77,29.05,13.77,20.93,6.62,16ZM43.44,34c2.7-6.27,2.87-12.06-.07-18C36.21,20.86,36.18,29,43.44,34Zm-9.22,9.21c-6-7.29-14.11-7-18,.27A20.09,20.09,0,0,0,34.22,43.25Z"/>
</svg>