<svg id="twitter" xmlns="http://www.w3.org/2000/svg" viewBox="0 0 130 130"><path d="M57,1H73a22.4,22.4,0,0,0,2.76.93c26.06,5.27,42.91,20.75,50.92,46,.94,3,1.55,6.05,2.32,9.08V73a21.12,21.12,0,0,0-.95,2.74q-7.88,38.73-45.51,50.76c-3.13,1-6.36,1.68-9.54,2.51H57a11.18,11.18,0,0,0-2.19-.91C29.87,123.4,13.13,109,4.38,85.31,2.91,81.33,2.11,77.11,1,73V57a11.59,11.59,0,0,0,.9-2.21C6.56,29.83,21,13.13,44.68,4.36,48.66,2.89,52.89,2.1,57,1Zm8,7.8A56.19,56.19,0,1,0,121.18,65,55.95,55.95,0,0,0,65,8.8Z"/><path d="M38.08,84.69l14.14-4.22-8.92-9L44.86,70,37.17,58.38l5.72.3C38.89,54,37.79,49.1,40.25,43c6.6,6.75,13.7,12,23.41,12.42a52.2,52.2,0,0,1,1.15-6.31,11.66,11.66,0,0,1,15.49-7.62c3.2,1.22,6.73,1.58,10.23,2.35.2-.45-.11.39-.54,1.16s-.93,1.37-1.73,2.52L91,47.29c-1.34,4.43-3.11,8.88-4,13.51-4.48,23-27.06,35-47.33,25A15.27,15.27,0,0,1,38.08,84.69Z"/></svg>