<svg xmlns="http://www.w3.org/2000/svg"><symbol id="arrow_up" viewBox="0 0 100 70"><path d="M90 48.6l-28.2-27-11.6-11.3-11.8 11.3-28 27L22 60l28-27 28 27 12-11.6"/></symbol><symbol id="bars" viewBox="0 0 130 108.56"><path d="M1 11.28c2.82-4.07 6.69-5.12 11.57-5.09q52.43.26 104.86 0c4.88 0 8.76 1 11.57 5.09v6c-2.82 4.06-6.69 5.12-11.57 5.09q-52.42-.26-104.85 0c-4.89 0-8.74-1.05-11.58-5.09zm128 46c-2.82 4.06-6.69 5.12-11.57 5.09q-52.43-.26-104.85 0c-4.89 0-8.76-1-11.57-5.09v-6c2.8-4.11 6.68-5.12 11.56-5.09q52.43.26 104.87 0c4.88 0 8.76 1 11.57 5.09zm0 40c-2.82 4.06-6.69 5.12-11.57 5.09q-52.43-.26-104.85 0c-4.89 0-8.76-1-11.57-5.09v-6c2.8-4.11 6.68-5.12 11.56-5.09q52.43.26 104.87 0c4.88 0 8.76 1 11.57 5.09z"/></symbol><symbol id="drawing-1" viewBox="0 0 210 297"><path d="M30.73 146.985v3.697H67.7v36.97h3.696v-36.97h36.97v-3.697h-36.97v-36.97H67.7v36.97z"/></symbol><symbol id="drawing-2" viewBox="0 0 210 297"><path d="M51.726 88.736h77.22m-38.61-38.61v77.219" fill="none" stroke="#2f3435" stroke-width="9.22704" stroke-miterlimit="10"/></symbol><symbol id="drawing-3" viewBox="0 0 210 297"><path d="M142.75 172.989c-5.002-1.175-11.382-4.242-13.7-8.05-1.29-2.128-1.43-4.513-.38-6.565.052-.108.153-.271.233-.403-.055-.453.049-1.05.372-1.823.02-.053.023-.065.037-.095h-25.674l.03.065s.002 0 .002.002c.576.907 1.08 1.709 1.349 2.229 1.062 2.072.922 4.462-.367 6.583-2.318 3.813-8.707 6.885-13.705 8.054l-1.38 23.254c-.148 2.544 1.513 4.635 3.698 4.635h47.168c2.186 0 3.852-2.084 3.698-4.635zm-33.613 16.014h-4.428a1.481 1.481 0 01-1.477-1.485c0-.82.658-1.485 1.477-1.485h4.428c.812 0 1.478.665 1.478 1.485 0 .82-.663 1.485-1.478 1.485zm0-5.653h-4.428a1.481 1.481 0 01-1.477-1.485c0-.82.658-1.48 1.477-1.48h4.428a1.483 1.483 0 010 2.966zm0-5.653h-4.428a1.48 1.48 0 01-1.477-1.483c0-.815.658-1.485 1.477-1.485h4.428c.812 0 1.478.663 1.478 1.485a1.48 1.48 0 01-1.478 1.483zm9.926 11.306h-4.43a1.483 1.483 0 01-1.478-1.485c0-.82.658-1.485 1.477-1.485h4.43a1.485 1.485 0 010 2.97zm0-5.653h-4.43a1.483 1.483 0 01-1.478-1.485c0-.82.658-1.48 1.477-1.48h4.43a1.484 1.484 0 010 2.966zm0-5.653h-4.43a1.48 1.48 0 01-1.478-1.483c0-.815.658-1.485 1.477-1.485h4.43a1.484 1.484 0 010 2.968zm9.93 11.306h-4.428a1.485 1.485 0 010-2.97h4.428c.814 0 1.482.665 1.482 1.485 0 .82-.668 1.485-1.482 1.485zm0-5.653h-4.428a1.488 1.488 0 01-1.482-1.485c0-.82.665-1.48 1.482-1.48h4.428a1.48 1.48 0 011.482 1.48 1.49 1.49 0 01-1.482 1.485zm0-5.653h-4.428a1.486 1.486 0 01-1.482-1.483c0-.815.665-1.485 1.482-1.485h4.428c.814 0 1.482.663 1.482 1.485a1.488 1.488 0 01-1.482 1.483zm17.509-31.351c.02.407.112.82.048 1.23-.377 2.403-1.632 4.62-2.393 6.94-.99 2.956-15.944.71-15.008-3.148.353-1.428 2.092-5.557 1.953-7.016-.129-1.301-2.029-1.884-3.584-1.635-4.123.642-9.221 2.19-13.51 3.256l.003.007c-.117.032-.239.05-.358.085-.12.025-.239.057-.358.087v-.007c-4.298 1.013-9.533 1.964-13.503 3.27-1.505.497-2.925 1.881-2.446 3.102.533 1.358 3.956 4.243 4.922 5.353 2.586 3.01-9.715 11.847-11.933 9.66-1.73-1.712-3.853-3.116-5.28-5.083-.238-.336-.344-.746-.518-1.119-4.153-8.482 1.356-19.493 12.734-23.235a221.205 221.205 0 0113.16-3.866l-.004-.023c.126-.027.238-.048.362-.073.117-.03.239-.07.356-.1l.004.024a219.02 219.02 0 0113.469-2.58c11.834-1.869 21.734 5.416 21.884 14.87zm12.972 9.86l-3.155-1.49c4.853-10.325.425-22.683-9.859-27.546l1.48-3.164c12.027 5.688 17.197 20.131 11.534 32.2zm-5.445-2.575l-3.15-1.49c3.433-7.313.3-16.065-6.986-19.51l1.482-3.156c9.026 4.264 12.906 15.102 8.654 24.156z" fill="#f0f"/></symbol><symbol id="drawing-4" viewBox="0 0 210 297"><path d="M31.845 173.15H5.165v-26.68a2.425 2.425 0 00-2.425-2.425h-14.552a2.425 2.425 0 00-2.425 2.425v26.679h-26.679a2.425 2.425 0 00-2.425 2.425v14.552a2.425 2.425 0 002.425 2.426h26.679v26.678a2.425 2.425 0 002.425 2.426H2.74a2.425 2.425 0 002.426-2.426v-26.678h26.679a2.425 2.425 0 002.425-2.426v-14.552a2.426 2.426 0 00-2.425-2.425z"/></symbol><symbol id="drawing" viewBox="0 0 210 297"><path d="M101.371 129.916H67.59V118.67h33.68V84.887h11.294v33.679h33.782v11.295h-33.679v33.782h-11.295z"/></symbol><symbol id="drawingplus" viewBox="0 0 210 297"><path d="M113.118 134.1h-67.83v-22.583h67.623v-67.83h22.679v67.623h67.83v22.679h-67.623v67.83h-22.679z"/></symbol><symbol id="drawingplus1" viewBox="0 0 210 297"><path d="M59.539 181.706H-53.363v-37.59H59.194V31.214h37.75v112.558h112.901v37.749H97.288v112.902H59.539z"/></symbol><symbol id="drawingtelephone" viewBox="0 0 210 297"><path d="M135.19 73.41c-5.001-1.197-11.382-4.324-13.7-8.208-1.289-2.17-1.429-4.602-.38-6.693.053-.11.154-.278.234-.411-.055-.463.048-1.071.372-1.86.02-.054.023-.066.036-.096H96.078a.96.96 0 01.032.068c.576.925 1.08 1.742 1.35 2.273 1.062 2.113.922 4.55-.368 6.712-2.317 3.888-8.707 7.02-13.704 8.213l-1.381 23.71c-.147 2.595 1.514 4.727 3.698 4.727h47.168c2.187 0 3.853-2.125 3.699-4.726zm-33.612 16.33H97.15c-.817 0-1.478-.679-1.478-1.515 0-.836.658-1.514 1.478-1.514h4.428c.812 0 1.477.678 1.477 1.514s-.663 1.515-1.477 1.515zm0-5.764H97.15c-.817 0-1.478-.679-1.478-1.515 0-.836.658-1.51 1.478-1.51h4.428c.812 0 1.477.67 1.477 1.51 0 .836-.663 1.515-1.477 1.515zm0-5.764H97.15c-.817 0-1.478-.677-1.478-1.512 0-.832.658-1.515 1.478-1.515h4.428c.812 0 1.477.676 1.477 1.515 0 .835-.663 1.512-1.477 1.512zm9.925 11.528h-4.43c-.815 0-1.478-.679-1.478-1.515 0-.836.659-1.514 1.478-1.514h4.43c.817 0 1.482.678 1.482 1.514s-.663 1.515-1.482 1.515zm0-5.764h-4.43c-.815 0-1.478-.679-1.478-1.515 0-.836.659-1.51 1.478-1.51h4.43c.817 0 1.482.67 1.482 1.51 0 .836-.663 1.515-1.482 1.515zm0-5.764h-4.43c-.815 0-1.478-.677-1.478-1.512 0-.832.659-1.515 1.478-1.515h4.43c.817 0 1.482.676 1.482 1.515 0 .835-.663 1.512-1.482 1.512zm9.93 11.528h-4.428c-.812 0-1.482-.679-1.482-1.515 0-.836.665-1.514 1.482-1.514h4.428c.815 0 1.483.678 1.483 1.514s-.668 1.515-1.483 1.515zm0-5.764h-4.428c-.812 0-1.482-.679-1.482-1.515 0-.836.665-1.51 1.482-1.51h4.428c.815 0 1.483.67 1.483 1.51-.005.836-.668 1.515-1.483 1.515zm0-5.764h-4.428c-.812 0-1.482-.677-1.482-1.512 0-.832.665-1.515 1.482-1.515h4.428c.815 0 1.483.676 1.483 1.515-.005.835-.668 1.512-1.483 1.512zm17.509-31.969c.02.416.112.836.048 1.254-.376 2.451-1.631 4.712-2.393 7.077-.989 3.014-15.944.725-15.008-3.21.354-1.456 2.093-5.665 1.953-7.154-.128-1.326-2.028-1.92-3.584-1.667-4.123.655-9.221 2.233-13.51 3.32l.003.007c-.117.033-.239.052-.358.087-.12.026-.238.059-.358.09v-.008c-4.297 1.033-9.533 2.003-13.502 3.334-1.505.507-2.926 1.918-2.446 3.163.532 1.385 3.955 4.327 4.921 5.458 2.586 3.069-9.714 12.08-11.933 9.85-1.73-1.745-3.852-3.177-5.28-5.182-.238-.343-.343-.76-.518-1.141-4.153-8.65 1.356-19.877 12.734-23.692a218.54 218.54 0 0113.16-3.942l-.004-.024c.126-.028.239-.05.363-.075.117-.03.238-.07.355-.1l.005.023a215.25 215.25 0 0113.468-2.63c11.835-1.906 21.735 5.522 21.884 15.162zm12.972 10.054l-3.154-1.52c4.852-10.527.424-23.128-9.86-28.086l1.48-3.226c12.028 5.799 17.197 20.527 11.534 32.832zm-5.444-2.625l-3.15-1.52c3.432-7.456.3-16.38-6.987-19.892l1.482-3.22c9.027 4.349 12.906 15.4 8.655 24.632z"/></symbol><symbol id="facebook" viewBox="0 0 130 130"><path d="M57 1h16a22.4 22.4 0 002.76.93c26.06 5.27 42.91 20.75 50.92 46 .94 3 1.55 6.05 2.32 9.08V73a21.12 21.12 0 00-.95 2.74q-7.88 38.73-45.51 50.76c-3.13 1-6.36 1.68-9.54 2.51H57a11.18 11.18 0 00-2.19-.91C29.87 123.4 13.13 109 4.38 85.31 2.91 81.33 2.11 77.11 1 73V57a11.59 11.59 0 00.9-2.21C6.56 29.83 21 13.13 44.68 4.36 48.66 2.89 52.89 2.1 57 1zm7.81 7.8a56.19 56.19 0 1056.38 56 56 56 0 00-56.38-56z"/><path d="M78.76 36v10c-9.38 1.63-9.38 1.63-8.65 8.91 1.36.1 2.79.24 4.22.3s2.62 0 4.65 0l-1.05 9.6-8.15.41v27.59H57.35V65.44l-6.06-.73v-9.15l5.42-.64c1-5.38-1.23-12.66 5-15.57C66.63 37 72.69 37.06 78.76 36z"/></symbol><symbol id="facebook_bg" viewBox="0 0 30 65.25"><path d="M1.13 22.38l5.21-.59C9 3.13 11.44 1.07 28.52 3.07v9.21c-2.78.58-6.15.43-8.19 2-1.36 1.05-.84 4.55-1.21 7.39 2 .18 3.42.32 4.84.42s2.93.15 4.91.25l-1 10.26-8.48.54V62.8H7V33.31l-5.91-.73z"/></symbol><symbol id="home2" viewBox="0 0 96.62 102.62"><path d="M48.24 22.46c12.7 12.89 24.55 24.82 36.24 36.91a7.62 7.62 0 011.75 4.83c.14 10.83 0 21.66.12 32.49.05 3.46-1.1 4.75-4.6 4.65-7.28-.19-14.58 0-22.33 0V66.72H40v34.55c-9.36 0-18 .12-26.61-.16-1 0-2.79-2.25-2.82-3.49-.22-11.49-.18-23-.08-34.48a5.57 5.57 0 011.39-3.51C23.7 47.45 35.61 35.34 48.24 22.46z"/><path d="M48.18 15.86L12.85 51.29c-.94.94-1.78 2.49-2.85 2.69-2.33.41-5.35 1-7-.08-2.66-1.67-2.12-4.67.06-6.9 4-4.05 7.85-8.18 12-12 2.79-2.55 4.23-5.26 3.87-9.13-.31-3.46-.05-7-.07-10.48 0-2.91.57-5.72 4.08-5.63s4 3 3.93 5.82v6.18l20-20.49 1.08 1c.45.15 1 .17 1.35.48q22 21.84 43.9 43.74c2.3 2.3 3.21 4.91.77 7.45s-5.36 2.06-7.86-.42L84 51.4q-16.08-16-32.17-32.12c-1.04-1.04-2.14-2.01-3.65-3.42z"/></symbol><symbol id="home3" viewBox="0 0 210 297"><g fill="red"><path d="M101.146 191.143c26.595 25.513 51.41 49.126 75.89 73.056a15.957 15.082 0 013.665 9.56c.293 21.436 0 42.872.251 64.307.105 6.849-2.304 9.402-9.633 9.204-15.245-.376-30.532 0-46.761 0v-68.523H83.89v68.385c-19.6 0-37.694.237-55.724-.317-2.094 0-5.842-4.453-5.905-6.908-.46-22.742-.377-45.524-.168-68.246a11.664 11.025 0 012.911-6.948c24.752-24.107 49.693-48.077 76.142-73.57z"/><path d="M101.02 178.08l-73.985 70.126c-1.968 1.86-3.727 4.929-5.968 5.324-4.88.812-11.203 1.98-14.659-.158-5.57-3.305-4.439-9.243.126-13.657 8.377-8.016 16.439-16.19 25.13-23.752 5.842-5.047 8.857-10.41 8.104-18.07-.65-6.85-.105-13.856-.147-20.744 0-5.76 1.194-11.322 8.544-11.143 7.35.178 8.376 5.938 8.23 11.52v12.231l41.882-40.556 2.261 1.98c.943.297 2.095.336 2.827.95q46.07 43.228 91.932 86.574c4.816 4.553 6.722 9.719 1.612 14.746-5.11 5.028-11.224 4.078-16.46-.831l-4.418-4.196q-33.673-31.669-67.367-63.575c-2.178-2.059-4.482-3.979-7.644-6.77z"/></g></symbol><symbol id="home31" viewBox="0 0 210 297"><g fill="red"><path d="M103.414 82.286c26.595 25.513 51.41 49.126 75.89 73.056a15.957 15.082 0 013.665 9.56c.293 21.436 0 42.871.25 64.307.106 6.849-2.303 9.402-9.632 9.204-15.245-.376-30.532 0-46.761 0V169.89H86.158v68.385c-19.6 0-37.694.237-55.724-.317-2.094 0-5.842-4.454-5.905-6.908-.461-22.742-.377-45.524-.168-68.246a11.664 11.025 0 012.911-6.948c24.752-24.108 49.693-48.077 76.142-73.57z"/><path d="M103.288 69.222L29.303 139.35c-1.968 1.86-3.727 4.928-5.968 5.324-4.88.812-11.203 1.98-14.659-.158-5.57-3.306-4.44-9.243.126-13.657 8.376-8.016 16.439-16.191 25.13-23.752 5.842-5.047 8.857-10.411 8.103-18.07-.649-6.85-.104-13.856-.146-20.744 0-5.76 1.193-11.322 8.544-11.144 7.35.179 8.376 5.938 8.23 11.52V80.9l41.882-40.556 2.261 1.98c.943.296 2.094.336 2.827.95q46.07 43.228 91.931 86.574c4.817 4.553 6.722 9.719 1.613 14.746-5.11 5.028-11.225 4.077-16.46-.831l-4.418-4.196q-33.674-31.67-67.368-63.576c-2.177-2.058-4.481-3.978-7.643-6.769z"/></g></symbol><symbol id="home311" viewBox="0 0 210 297"><g fill="red"><path d="M103.413 82.285c26.595 25.513 51.41 49.126 75.89 73.056a15.957 15.082 0 013.665 9.56c.293 21.436 0 42.872.252 64.308.104 6.848-2.304 9.401-9.633 9.203-15.245-.376-30.532 0-46.762 0V169.89H86.158v68.385c-19.6 0-37.694.237-55.724-.317-2.094 0-5.843-4.453-5.905-6.908-.461-22.742-.377-45.524-.168-68.246a11.664 11.025 0 012.91-6.947c24.753-24.108 49.694-48.078 76.142-73.57z"/><path d="M103.288 69.222l-73.985 70.126c-1.968 1.86-3.727 4.929-5.968 5.325-4.88.811-11.203 1.979-14.659-.159-5.57-3.305-4.44-9.243.126-13.657 8.376-8.016 16.439-16.19 25.13-23.751 5.842-5.048 8.857-10.412 8.103-18.072-.649-6.848-.104-13.855-.146-20.743 0-5.76 1.193-11.321 8.544-11.143s8.376 5.938 8.23 11.52V80.9l41.881-40.556 2.262 1.979c.942.297 2.094.336 2.827.95q46.07 43.228 91.931 86.575c4.817 4.552 6.722 9.718 1.613 14.745s-11.225 4.078-16.46-.83l-4.419-4.197q-33.673-31.669-67.367-63.575c-2.178-2.059-4.481-3.978-7.643-6.77z"/></g></symbol><symbol id="instagram" viewBox="0 0 130 130"><path d="M57 1h16a22.4 22.4 0 002.76.93c26.06 5.27 42.91 20.75 50.92 46 .94 3 1.55 6.05 2.32 9.08V73a21.12 21.12 0 00-.95 2.74q-7.88 38.73-45.51 50.76c-3.13 1-6.36 1.68-9.54 2.51H57a11.18 11.18 0 00-2.19-.91C29.87 123.4 13.13 109 4.38 85.31 2.91 81.33 2.11 77.11 1 73V57a11.59 11.59 0 00.9-2.21C6.56 29.83 21 13.13 44.68 4.36 48.66 2.89 52.89 2.1 57 1zm8.19 120.18a56.19 56.19 0 10-56.4-56 56 56 0 0056.4 56z"/><path d="M36.9 65.08V43.6c0-5.92 1.91-8 7.64-8q20.48-.12 41 0c5.52 0 7.54 2.08 7.56 7.56q.09 21.72 0 43.45c0 5.78-2 7.71-7.9 7.74q-20.23.1-40.45 0c-5.85 0-7.76-2-7.81-7.81-.09-7.15-.04-14.31-.04-21.46zM43 59.6c0 8.72-.13 16.86.14 25 0 1.17 2 3.26 3.06 3.28q18.7.35 37.4 0c1.16 0 3.24-2 3.27-3.07.28-8.27.15-16.55.15-25.11h-4.58C82 73.26 79.31 79.93 71.09 81.87c-18.2 4.31-23.64-6.35-23.64-22.27zm33.3 5.24c-.07-6.66-5.27-12-11.56-11.78s-11.2 5.64-11 12.32c.17 6.44 5.2 11.56 11.31 11.54 6.27-.01 11.3-5.4 11.23-12.08zm10.65-19.06c.53-3.55-.32-5.67-4.58-5.62-3.69 0-5.46 1-5.36 5.07.09 3.47.58 5.68 4.83 5.6 3.64-.08 5.88-.89 5.11-5.05z"/></symbol><symbol id="instagram_bg" viewBox="0 0 62.14 62.07"><path d="M31.06 61c-4.33 0-8.66.15-13 0-9.48-.4-16.65-7.49-16.89-17q-.33-13 0-26A17 17 0 0118.08 1.17q13-.34 26 0A17.06 17.06 0 0161 18.08q.36 13 0 26A17.17 17.17 0 0144 61c-4.28.16-8.61 0-12.94 0zm.2-54.1c-4.33 0-8.66-.1-13 0C11.37 7.12 7 11.27 6.78 18.14c-.23 8.65-.22 17.32 0 26 .15 6.68 4.22 11.1 10.85 11.36 9 .34 18 .34 27 0 6.37-.28 10.5-4.63 10.67-10.98q.35-13.23 0-26.48c-.18-6.82-4.63-10.93-11.56-11.13-4.15-.11-8.32-.02-12.48-.01z"/><path d="M31.14 15.8a15.34 15.34 0 0115.41 15.62 15.5 15.5 0 01-31-.16A15.35 15.35 0 0131.14 15.8zM31 41.16a9.88 9.88 0 0010.13-10 10 10 0 00-20-.21A9.84 9.84 0 0031 41.16zm21.09-26.37c-2.15 1.76-3.41 3.6-4.65 3.59s-2.54-1.83-3.82-2.86c1.14-1.33 2.07-3.33 3.48-3.75 1.02-.3 2.66 1.52 4.99 3.02z"/></symbol><symbol id="phone" viewBox="0 0 50 64"><path d="M50.286 44.286q0 .964-.357 2.518t-.75 2.446q-.75 1.786-4.357 3.786-3.357 1.821-6.643 1.821-.964 0-1.893-.125t-2.054-.446-1.679-.518-1.982-.732-1.75-.643q-3.5-1.25-6.25-2.964-4.536-2.821-9.429-7.714t-7.714-9.429q-1.714-2.75-2.964-6.25-.107-.321-.643-1.75t-.732-1.982-.518-1.679-.446-2.054T0 16.678q0-3.286 1.821-6.643 2-3.607 3.786-4.357.893-.393 2.446-.75t2.518-.357q.5 0 .75.107.643.214 1.893 2.714.393.679 1.071 1.929t1.25 2.268 1.107 1.911q.107.143.625.893t.768 1.268.25 1.018q0 .714-1.018 1.786t-2.214 1.964-2.214 1.893-1.018 1.643q0 .321.179.804t.304.732.5.857.411.679q2.714 4.893 6.214 8.393t8.393 6.214q.071.036.679.411t.857.5.732.304.804.179q.643 0 1.643-1.018t1.893-2.214 1.964-2.214 1.786-1.018q.5 0 1.018.25t1.268.768.893.625q.893.536 1.911 1.107t2.268 1.25 1.929 1.071q2.5 1.25 2.714 1.893.107.25.107.75z"/></symbol><symbol id="pinterest" viewBox="0 0 130 130"><path d="M57 1h16a22.4 22.4 0 002.76.93c26.06 5.27 42.91 20.75 50.92 46 .94 3 1.55 6.05 2.32 9.08V73a21.12 21.12 0 00-.95 2.74q-7.88 38.73-45.51 50.76c-3.13 1-6.36 1.68-9.54 2.51H57a11.18 11.18 0 00-2.19-.91C29.87 123.4 13.13 109 4.38 85.31 2.91 81.33 2.11 77.11 1 73V57a11.59 11.59 0 00.9-2.21C6.56 29.83 21 13.13 44.68 4.36 48.66 2.89 52.89 2.1 57 1zm64.18 64A56.19 56.19 0 1065 121.18 56 56 0 00121.18 65z"/><path d="M61.58 76.46L53 98l-2.48-.6c.33-5.18.35-10.39 1.06-15.52C52.79 73.3 56.7 65.06 54.94 56c-.32-1.63.4-3.64 1.13-5.26 1.35-3 4-5.25 7.09-3.58 1.72.94 3.12 4.26 3 6.41-.22 3.91-2.14 7.72-2.45 11.64-.18 2.26.73 5.69 2.35 6.73s5.3.79 7.26-.33C79.52 68.07 82.5 53.39 79 46c-3.07-6.48-10.78-9.33-18.89-7S46.6 50.07 48 59c.2 1.29 1 2.48 1.21 3.77.46 2.31.73 4.67 1.15 7.54-6.21-1.83-8.81-5.33-9.4-11.44-1-10.28 2.79-18.5 11.76-23.53S71.27 30 80.1 36c8.63 5.92 10.41 14.78 8.52 24.37a33.61 33.61 0 01-4.85 11.87c-5.43 8.18-14.29 9.52-22.19 4.22z"/></symbol><symbol id="pinterest_bg" viewBox="0 0 57.77 73.91"><path d="M12.05 43.48C5.53 41.65 3.18 38 1.9 33.54-2.48 18.12 9.63 2.71 27.31 1.4 38.6.57 48.1 4 54 14.34c4.88 8.66 3.11 22.73-3.6 31.07-6.9 8.57-16.48 10-26.22 3.71-2.18 8.49-3.84 17.21-11.76 23.51.29-5.47.24-11 1-16.41.64-4.75 2.48-9.34 3.21-14.09.62-4 .18-8.16.65-12.19.38-3.21.64-6.92 2.42-9.33 1.3-1.82 5.3-3.12 7.49-2.47 1.66.5 3.32 4.45 3.19 6.77-.22 3.9-1.77 7.74-2.92 11.56-1 3.32-.93 6.35 2.19 8.46S36 46.32 39 44.27c6.35-4.4 9.75-18.55 6.44-26.62C42.57 10.74 34.42 7 25.68 8.6 15.94 10.38 9.13 18 9.13 27.65c0 2.39 1.22 4.75 1.68 7.16.49 2.58.76 5.19 1.24 8.67z"/></symbol><symbol id="plus" viewBox="0 0 300 300"><path d="M128.85 171.36H1.17v-42.51h127.29V1.17h42.69v127.29h127.68v42.69H171.54v127.68h-42.69z"/></symbol><symbol id="returns" viewBox="0 0 448 449.52"><path d="M447 224.7c0 122.79-100.75 223.53-223.27 223.14-123-.39-222.64-100.11-222.79-223C.82 102.16 100.85 1.92 223.64 1.67S447 101.86 447 224.7zm-46.82.15c-.37-97.74-79.57-176.63-177-176.34-96.66.29-175.47 79.58-175.31 176.39.16 97.45 79.53 176.53 176.59 176s176.11-79.7 175.75-176.04z"/><path d="M247.08 164.42v66.48c0 12.14-7.82 20.1-20 20.12q-44.74.07-89.48 0c-10.15 0-16.85-5.5-18.48-14.73a16.7 16.7 0 0111.21-18.88 25 25 0 017.84-1c25.66-.07 51.32-.17 77 .06 4.83 0 6.19-1.34 6.17-6.15q-.27-57-.06-114c0-10.75 9.89-17.11 18.79-12.3 5.28 2.85 7 7.62 7 13.39-.06 22.33 0 44.66 0 67z"/></symbol><symbol id="rss_bg" viewBox="0 0 46.45 46.56"><path d="M45.33 45.56h-8.07C34.87 24.21 23.17 11.91 1.33 9.25v-8c21.83-2.94 46.03 21.26 44 44.31z"/><path d="M30.13 45.48h-8.31c-1.55-12-8.22-19-20.49-20.74v-8.21C16.69 15 31.36 31.06 30.13 45.48z"/><path d="M1 39.59c.26-3.67 2.12-5.92 5.93-6s6 2.28 6.07 5.87a5.62 5.62 0 01-5.93 6.08c-3.64.07-5.76-2.16-6.07-5.95z"/></symbol><symbol id="select_arrow_down" viewBox="0 0 48 48"><path d="M14.83 16.42L24 25.59l9.17-9.17L36 19.25l-12 12-12-12z"/><path d="M0-.75h48v48H0z" fill="none"/></symbol><symbol id="shipping" viewBox="0 0 150 150.47"><path d="M.57 100.73c2.73-.38 5.63-1.54 8.16-1 8.33 1.77 16.53 4.16 23.84 6.06L72.4 61.15.63 21.55c.7-1.06 1.16-1.78 1.66-2.49 5.18-7.38 11.14-8.5 20-5.48 22.76 7.7 46 13.89 69 21 3.86 1.19 6.1.54 8.7-2.36 7.2-8.06 14.68-15.86 22.11-23.71a37.18 37.18 0 015.48-5c6.12-4.24 13.42-3.83 17.98.84a13 13 0 01.63 17.86c-5.54 6.45-11.43 13-18.37 17.78-12.39 8.48-14 17.81-8.63 31.65 7.13 18.38 11.67 37.76 17.35 56.71 3.69 12.3 3.72 12.29-7.94 21.1L88.81 77.31l-44.22 39.52c-.9 10.25 9.92 20.84 4.39 32.75l-2.05.31c-3.17-6.18-6.81-12.17-9.41-18.58-3.7-9.14-9.89-15.13-19-18.82-6.18-2.52-12-6-17.91-9.09z"/></symbol><symbol id="support" viewBox="0 0 50 50"><path d="M49 20v10a28.44 28.44 0 01-19 19H20c-9.51-3.16-15.89-9.44-19-19V20A28.18 28.18 0 0120 1h10c9.56 3.11 15.84 9.49 19 19zM25.08 35.15A9.87 9.87 0 0035.15 25a9.87 9.87 0 00-10-10.2 9.89 9.89 0 00-10.32 10.4 9.87 9.87 0 0010.25 9.95zM15.85 6.64c5.57 7.29 13.64 7.11 18-.1-5.93-2.84-11.73-2.77-18 .1zM6.62 16a19.33 19.33 0 000 17.89c7.15-4.84 7.15-12.96 0-17.89zm36.82 18c2.7-6.27 2.87-12.06-.07-18-7.16 4.86-7.19 13 .07 18zm-9.22 9.21c-6-7.29-14.11-7-18 .27a20.09 20.09 0 0018-.23z"/></symbol><symbol id="telephone-ringing" viewBox="0 0 100 100"><path d="M25.972 21.712c-2.18-.51-4.961-1.842-5.971-3.496-.562-.924-.623-1.96-.166-2.851.023-.047.067-.118.102-.175-.024-.197.021-.456.162-.792l.016-.041H8.925l.013.028.001.001c.251.394.471.742.588.968.463.9.402 1.938-.16 2.859-1.01 1.656-3.795 2.99-5.973 3.498L2.792 31.81c-.064 1.105.66 2.013 1.612 2.013h20.558c.953 0 1.679-.905 1.612-2.013l-.602-10.098zm-14.65 6.955h-1.93a.644.644 0 010-1.29h1.93a.646.646 0 010 1.29zm0-2.455h-1.93a.644.644 0 010-1.288h1.93a.645.645 0 010 1.288zm0-2.455h-1.93a.644.644 0 110-1.289h1.93a.645.645 0 010 1.289zm4.326 4.91h-1.931a.645.645 0 010-1.29h1.931a.646.646 0 010 1.29zm0-2.455h-1.931a.645.645 0 010-1.288h1.931a.643.643 0 110 1.288zm0-2.455h-1.931a.644.644 0 010-1.289h1.931a.645.645 0 110 1.289zm4.328 4.91h-1.93a.646.646 0 010-1.29h1.93c.355 0 .646.289.646.645s-.291.645-.646.645zm0-2.455h-1.93a.644.644 0 110-1.288h1.93a.644.644 0 110 1.288zm0-2.455h-1.93a.647.647 0 01-.646-.644c0-.354.29-.645.646-.645h1.93c.355 0 .646.288.646.645a.647.647 0 01-.646.644zm7.631-13.616c.009.177.049.356.021.534-.164 1.044-.711 2.007-1.043 3.014-.431 1.284-6.949.309-6.541-1.367.154-.62.912-2.413.851-3.047-.056-.565-.884-.818-1.562-.71-1.797.279-4.019.951-5.888 1.414l.001.003c-.051.014-.104.022-.156.037-.052.011-.104.025-.156.038v-.003c-1.873.44-4.155.853-5.885 1.42-.656.216-1.275.817-1.066 1.347.232.59 1.724 1.843 2.145 2.325 1.127 1.307-4.234 5.145-5.201 4.195-.754-.743-1.679-1.353-2.301-2.207-.104-.146-.15-.324-.226-.486-1.81-3.684.591-8.466 5.55-10.091a96.672 96.672 0 015.736-1.679l-.002-.01.158-.032c.051-.013.104-.03.155-.043l.002.01a95.762 95.762 0 015.87-1.12c5.158-.812 9.473 2.352 9.538 6.458zm5.654 4.282l-1.375-.647c2.115-4.484.185-9.851-4.297-11.963l.645-1.374c5.242 2.47 7.495 8.743 5.027 13.984zm-2.373-1.118l-1.373-.647a6.373 6.373 0 00-3.045-8.473l.646-1.371c3.934 1.852 5.625 6.559 3.772 10.491z"/></symbol><symbol id="twitter" viewBox="0 0 130 130"><path d="M57 1h16a22.4 22.4 0 002.76.93c26.06 5.27 42.91 20.75 50.92 46 .94 3 1.55 6.05 2.32 9.08V73a21.12 21.12 0 00-.95 2.74q-7.88 38.73-45.51 50.76c-3.13 1-6.36 1.68-9.54 2.51H57a11.18 11.18 0 00-2.19-.91C29.87 123.4 13.13 109 4.38 85.31 2.91 81.33 2.11 77.11 1 73V57a11.59 11.59 0 00.9-2.21C6.56 29.83 21 13.13 44.68 4.36 48.66 2.89 52.89 2.1 57 1zm8 7.8A56.19 56.19 0 10121.18 65 55.95 55.95 0 0065 8.8z"/><path d="M38.08 84.69l14.14-4.22-8.92-9L44.86 70l-7.69-11.62 5.72.3c-4-4.68-5.1-9.58-2.64-15.68 6.6 6.75 13.7 12 23.41 12.42a52.2 52.2 0 011.15-6.31 11.66 11.66 0 0115.49-7.62c3.2 1.22 6.73 1.58 10.23 2.35.2-.45-.11.39-.54 1.16s-.93 1.37-1.73 2.52l2.74-.23c-1.34 4.43-3.11 8.88-4 13.51-4.48 23-27.06 35-47.33 25a15.27 15.27 0 01-1.59-1.11z"/></symbol><symbol id="twitter_bg" viewBox="0 0 59.76 51.52"><path d="M1.78 45.82l14.66-4.42-9.5-8.9 1.74-1.57L1 20.15 2.15 19l4.32.75c-4-5-6.15-9.83-2.86-16.07 7 7 14.75 12 24.73 12.39.75-2.9 1.06-5.76 2.2-8.23C33.27 2 40.54-1 46.12 2.15c4 2.3 7.44 2.73 12.64-.12l-4.15 6.38 3.94-.61c-5.64 4.06-4.34 10.39-5.68 15.75-5.71 22.9-31.8 34.26-51.09 22.27z"/></symbol><symbol id="user" viewBox="0 0 512 512"><path d="M256 0c88.366 0 160 71.634 160 160s-71.634 160-160 160S96 248.366 96 160 167.634 0 256 0zm183.283 333.821l-71.313-17.828c-74.923 53.89-165.738 41.864-223.94 0l-71.313 17.828C29.981 344.505 0 382.903 0 426.955V464c0 26.51 21.49 48 48 48h416c26.51 0 48-21.49 48-48v-37.045c0-44.052-29.981-82.45-72.717-93.134z"/></symbol></svg>